<svg height='100px' width='100px'  fill="#000000" xmlns:dc="http://purl.org/dc/elements/1.1/" xmlns:cc="http://creativecommons.org/ns#" xmlns:rdf="http://www.w3.org/1999/02/22-rdf-syntax-ns#" xmlns:svg="http://www.w3.org/2000/svg" xmlns="http://www.w3.org/2000/svg" xmlns:sodipodi="http://sodipodi.sourceforge.net/DTD/sodipodi-0.dtd" xmlns:inkscape="http://www.inkscape.org/namespaces/inkscape" viewBox="0 0 256 256" version="1.1" x="0px" y="0px">

<defs>
    <linearGradient id="gradient" gradientTransform="">
      <stop offset="0%"  stop-color="#0644bfcc" />
      <stop offset="95%" stop-color="#f29829cc" />
    </linearGradient>
</defs>

<g fill="url('#gradient')"><path style="" d="M 128.5 6.7148438 A 121.78547 121.78547 0 0 0 6.7148438 128.5 A 121.78547 121.78547 0 0 0 128.5 250.28711 A 121.78547 121.78547 0 0 0 250.28516 128.5 A 121.78547 121.78547 0 0 0 128.5 6.7148438 z M 128.5 13.833984 L 128.59375 13.837891 L 130.66797 13.886719 L 130.47656 21.433594 L 128.5 21.386719 L 126.89453 21.427734 L 126.70312 13.876953 L 128.40234 13.837891 L 128.5 13.833984 z M 122.93164 13.974609 L 123.11914 21.519531 L 122.98047 21.523438 L 119.54688 21.785156 L 118.97266 14.259766 L 122.50977 13.990234 L 122.60156 13.980469 L 122.69922 13.980469 L 122.93164 13.974609 z M 134.62891 14.001953 L 138.39453 14.285156 L 137.82227 21.8125 L 134.05859 21.527344 L 134.62891 14.001953 z M 115.0293 14.648438 L 115.98047 22.136719 L 112.23828 22.613281 L 111.28711 15.123047 L 115.0293 14.648438 z M 142.33594 14.695312 L 145.86328 15.144531 L 145.95898 15.154297 L 146.05273 15.169922 L 146.26562 15.210938 L 144.93945 22.638672 L 144.79297 22.613281 L 141.38477 22.185547 L 142.33594 14.695312 z M 107.37891 15.806641 L 108.70703 23.240234 L 106.92383 23.558594 L 105.19336 23.957031 L 103.49805 16.601562 L 105.30273 16.183594 L 105.39453 16.162109 L 105.49023 16.144531 L 107.37891 15.806641 z M 149.98242 15.875 L 151.50977 16.146484 L 151.60547 16.162109 L 151.69727 16.183594 L 153.86328 16.685547 L 152.16406 24.041016 L 150.07422 23.558594 L 148.65625 23.304688 L 149.98242 15.875 z M 99.638672 17.503906 L 101.70312 24.765625 L 98.070312 25.796875 L 96.009766 18.53125 L 99.638672 17.503906 z M 157.7168 17.603516 L 161.3457 18.636719 L 159.28516 25.898438 L 155.65234 24.865234 L 157.7168 17.603516 z M 92.232422 19.724609 L 94.652344 26.875 L 91.664062 27.886719 L 91.257812 28.044922 L 88.490234 21.021484 L 88.986328 20.826172 L 89.072266 20.792969 L 89.164062 20.763672 L 92.232422 19.724609 z M 165.11914 19.841797 L 167.83594 20.763672 L 167.92773 20.792969 L 168.01172 20.828125 L 168.85156 21.158203 L 166.08398 28.181641 L 165.32617 27.884766 L 162.69922 26.992188 L 165.11914 19.841797 z M 84.978516 22.40625 L 87.75 29.429688 L 86.837891 29.787109 L 84.458984 30.863281 L 81.349609 23.982422 L 83.78125 22.884766 L 83.865234 22.84375 L 83.953125 22.810547 L 84.978516 22.40625 z M 172.36328 22.542969 L 173.04688 22.810547 L 173.13477 22.84375 L 173.21875 22.884766 L 175.99023 24.138672 L 172.88086 31.013672 L 170.16602 29.791016 L 169.5957 29.566406 L 172.36328 22.542969 z M 77.767578 25.666016 L 81.205078 32.384766 L 77.847656 34.103516 L 74.40625 27.384766 L 77.767578 25.666016 z M 179.56445 25.832031 L 182.92188 27.556641 L 179.48047 34.275391 L 176.12305 32.552734 L 179.56445 25.832031 z M 128.50195 27.408203 C 184.32282 27.408203 229.5918 72.681063 229.5918 128.50195 C 229.5918 184.32283 184.32282 229.5918 128.50195 229.5918 C 72.681063 229.5918 27.408203 184.32283 27.408203 128.50195 C 27.408203 72.681063 72.681063 27.408203 128.50195 27.408203 z M 128.50195 29.199219 C 73.64905 29.199219 29.199219 73.649063 29.199219 128.50195 C 29.199219 183.35484 73.64905 227.80078 128.50195 227.80078 C 183.35483 227.80078 227.80078 183.35484 227.80078 128.50195 C 227.80078 73.649063 183.35483 29.199219 128.50195 29.199219 z M 70.960938 29.332031 L 74.724609 35.876953 L 72.955078 36.890625 L 71.648438 37.728516 L 67.574219 31.376953 L 68.960938 30.484375 L 69.037109 30.4375 L 69.119141 30.390625 L 70.960938 29.332031 z M 186.36133 29.515625 L 187.88086 30.390625 L 187.96289 30.4375 L 188.03906 30.484375 L 189.73828 31.574219 L 185.66406 37.929688 L 184.04492 36.890625 L 182.59766 36.060547 L 186.36133 29.515625 z M 64.25 33.517578 L 68.623047 39.669922 L 65.544922 41.857422 L 61.173828 35.705078 L 64.25 33.517578 z M 193.05273 33.732422 L 196.12891 35.919922 L 191.75586 42.072266 L 188.67969 39.884766 L 193.05273 33.732422 z M 58.017578 38.087891 L 62.681641 44.021484 L 60.392578 45.822266 L 59.876953 46.267578 L 54.933594 40.564453 L 55.492188 40.078125 L 55.560547 40.017578 L 55.630859 39.964844 L 58.017578 38.087891 z M 199.27148 38.314453 L 201.36914 39.964844 L 201.43945 40.017578 L 201.50781 40.078125 L 202.34766 40.804688 L 197.4043 46.511719 L 196.60742 45.822266 L 194.61133 44.253906 L 199.27148 38.314453 z M 52.080078 43.033203 L 57.021484 48.740234 L 56.496094 49.199219 L 54.396484 51.193359 L 49.189453 45.732422 L 51.333984 43.683594 L 51.398438 43.623047 L 51.46875 43.5625 L 52.080078 43.033203 z M 205.19922 43.275391 L 205.53125 43.5625 L 205.59766 43.623047 L 205.66602 43.683594 L 208.07812 45.986328 L 202.87109 51.447266 L 200.50586 49.197266 L 200.25586 48.980469 L 205.19922 43.275391 z M 46.378906 48.509766 L 51.839844 53.71875 L 49.236328 56.451172 L 43.771484 51.244141 L 46.378906 48.509766 z M 210.875 48.777344 L 213.31445 51.333984 L 213.375 51.400391 L 213.43555 51.46875 L 213.59375 51.652344 L 207.89062 56.595703 L 207.80664 56.498047 L 205.41406 53.988281 L 210.875 48.777344 z M 41.173828 54.224609 L 46.880859 59.167969 L 45.822266 60.390625 L 44.601562 61.945312 L 38.667969 57.28125 L 39.960938 55.628906 L 40.019531 55.560547 L 40.080078 55.492188 L 41.173828 54.224609 z M 216.06641 54.503906 L 216.91992 55.492188 L 216.98047 55.560547 L 217.0332 55.628906 L 218.55859 57.570312 L 212.625 62.234375 L 211.17773 60.390625 L 210.35938 59.447266 L 216.06641 54.503906 z M 36.248047 60.408203 L 42.398438 64.783203 L 40.212891 67.861328 L 34.060547 63.484375 L 36.248047 60.408203 z M 220.96484 60.708984 L 223.1543 63.787109 L 217.00195 68.158203 L 214.81445 65.085938 L 220.96484 60.708984 z M 31.878906 66.785156 L 38.236328 70.859375 L 36.892578 72.953125 L 36.34375 73.912109 L 29.798828 70.148438 L 30.390625 69.117188 L 30.435547 69.041016 L 30.486328 68.962891 L 31.878906 66.785156 z M 225.31836 67.097656 L 226.51367 68.962891 L 226.56445 69.039062 L 226.60938 69.117188 L 227.38672 70.466797 L 220.8418 74.230469 L 220.10742 72.957031 L 218.96094 71.171875 L 225.31836 67.097656 z M 27.919922 73.419922 L 34.458984 77.183594 L 34.3125 77.441406 L 32.810547 80.373047 L 26.09375 76.931641 L 27.634766 73.921875 L 27.673828 73.841797 L 27.720703 73.761719 L 27.919922 73.419922 z M 229.26367 73.742188 L 229.2793 73.761719 L 229.32617 73.841797 L 229.36523 73.923828 L 231.07422 77.259766 L 224.35547 80.703125 L 222.7207 77.503906 L 222.64648 77.365234 L 225.59961 75.849609 L 229.26367 73.742188 z M 24.369141 80.494141 L 31.25 83.603516 L 29.814453 86.773438 L 29.775391 86.878906 L 29.769531 86.875 L 29.761719 86.890625 L 29.4375 86.744141 L 22.751953 84.105469 L 22.8125 83.951172 L 22.845703 83.865234 L 22.886719 83.78125 L 24.369141 80.494141 z M 232.78125 80.832031 L 234.11328 83.78125 L 234.1543 83.863281 L 234.1875 83.951172 L 234.38477 84.451172 L 227.36328 87.21875 L 227.1875 86.783203 L 225.9043 83.941406 L 232.78125 80.832031 z M 21.367188 87.617188 L 28.388672 90.390625 L 27.882812 91.673828 L 27.173828 93.763672 L 20.023438 91.34375 L 20.759766 89.162109 L 20.791016 89.076172 L 20.828125 88.988281 L 21.367188 87.617188 z M 235.76953 87.962891 L 236.17188 88.988281 L 236.20898 89.076172 L 236.23633 89.162109 L 237.09375 91.691406 L 229.94336 94.111328 L 229.09375 91.615234 L 229.08398 91.582031 L 228.74414 90.730469 L 235.76953 87.962891 z M 43.304688 89.388672 L 85.667969 89.388672 L 85.667969 107.25977 L 73.421875 107.25977 L 73.421875 167.61133 L 55.433594 167.61133 L 55.433594 107.25977 L 43.304688 107.25977 L 43.304688 89.388672 z M 96.742188 89.388672 L 114.49609 89.388672 L 114.49609 118.39258 L 130.25781 118.39258 L 130.25781 89.388672 L 148.01172 89.388672 L 148.01172 167.61133 L 130.25781 167.61133 L 130.25781 135.0918 L 114.49609 135.0918 L 114.49609 167.61133 L 96.742188 167.61133 L 96.742188 89.388672 z M 164.71094 89.388672 L 182.75781 89.388672 C 193.26562 89.388672 200.82422 91.458984 205.43359 95.599609 C 210.04297 99.701172 212.34766 104.93555 212.34766 111.30273 C 212.34766 118.17773 208.98828 123.70508 202.26953 127.88477 C 209.88672 130.89258 213.69531 136.61523 213.69531 145.05273 C 213.69531 151.81055 211.33203 157.25977 206.60547 161.40039 C 201.87891 165.54102 195.64844 167.61133 187.91406 167.61133 L 164.71094 167.61133 L 164.71094 89.388672 z M 18.791016 95.107422 L 26.052734 97.167969 L 25.019531 100.80078 L 17.757812 98.738281 L 18.791016 95.107422 z M 238.31055 95.462891 L 239.3418 99.09375 L 232.08008 101.1543 L 231.04883 97.525391 L 238.31055 95.462891 z M 16.810547 102.58594 L 24.164062 104.28125 L 23.572266 106.85938 L 23.404297 107.7832 L 15.972656 106.45703 L 16.146484 105.48828 L 16.164062 105.39453 L 16.183594 105.30469 L 16.810547 102.58594 z M 240.26953 102.94531 L 240.81641 105.30469 L 240.83789 105.39453 L 240.85352 105.48828 L 241.0918 106.82227 L 233.66016 108.14844 L 233.43164 106.86133 L 232.91602 104.64453 L 240.26953 102.94531 z M 182.46484 104.38867 L 182.46484 121.26367 C 190.39453 121.06836 194.35938 118.31445 194.35938 113.00195 C 194.35938 109.83789 193.40234 107.63086 191.48828 106.38086 C 189.61328 105.13086 186.60547 104.4668 182.46484 104.38867 z M 15.308594 110.17188 L 22.740234 111.5 L 22.613281 112.2168 L 22.253906 115.05078 L 14.765625 114.09961 L 15.140625 111.13867 L 15.154297 111.04102 L 15.171875 110.94922 L 15.308594 110.17188 z M 241.75391 110.53906 L 241.82812 110.95117 L 241.84375 111.04102 L 241.85742 111.13867 L 242.28125 114.46484 L 234.79102 115.41797 L 234.38672 112.2207 L 234.32227 111.86523 L 241.75391 110.53906 z M 14.330078 118.04102 L 21.857422 118.61328 L 21.572266 122.37695 L 14.042969 121.80273 L 14.330078 118.04102 z M 242.69922 118.4082 L 242.98438 122.17188 L 235.45703 122.74609 L 235.16992 118.98242 L 242.69922 118.4082 z M 13.902344 125.76562 L 21.447266 125.95508 L 21.384766 128.49805 L 21.410156 129.53711 L 13.865234 129.72852 L 13.833984 128.5957 L 13.833984 128.49805 L 13.833984 128.40625 L 13.902344 125.76562 z M 243.10352 126.13672 L 243.16406 128.40625 L 239.39258 128.50195 L 243.16406 128.5957 L 243.06836 132.36914 L 235.52148 132.17773 L 235.61328 128.50195 L 235.55859 126.32812 L 243.10352 126.13672 z M 21.505859 133.31055 L 21.521484 133.95703 L 21.742188 136.88672 L 14.216797 137.45898 L 13.988281 134.49414 L 13.982422 134.39648 L 13.978516 134.30273 L 13.958984 133.50195 L 21.505859 133.31055 z M 182.46484 135.44336 L 182.46484 152.37695 C 186.95703 152.29883 190.31641 151.61523 192.54297 150.32617 C 194.80859 148.99805 195.94141 146.83008 195.94141 143.82227 C 195.94141 138.23633 191.9375 135.44336 183.92969 135.44336 L 182.46484 135.44336 z M 235.34375 135.75781 L 242.86914 136.32617 L 242.58594 140.08984 L 235.05664 139.51953 L 235.34375 135.75781 z M 22.064453 140.45508 L 22.541016 144.20117 L 15.050781 145.1543 L 14.576172 141.40625 L 22.064453 140.45508 z M 234.60156 143.07617 L 242.08984 144.02734 L 241.85938 145.86328 L 241.8457 145.95703 L 241.82812 146.05273 L 241.49023 147.94531 L 234.06055 146.61719 L 234.38477 144.78711 L 234.60156 143.07617 z M 23.140625 147.73438 L 23.570312 150.12891 L 23.828125 151.25195 L 16.472656 152.94727 L 16.183594 151.69727 L 16.164062 151.60352 L 16.146484 151.51367 L 15.708984 149.06055 L 23.140625 147.73438 z M 233.42773 150.14648 L 240.7832 151.8418 L 239.93164 155.52148 L 232.57617 153.82227 L 233.42773 150.14648 z M 24.677734 154.92773 L 24.757812 155.2793 L 25.640625 158.38281 L 18.378906 160.44336 L 17.470703 157.24414 L 17.443359 157.15234 L 17.423828 157.0625 L 17.324219 156.62695 L 24.677734 154.92773 z M 231.66797 157.29102 L 238.93359 159.35352 L 238.03516 162.50781 L 238.01172 162.59766 L 237.98047 162.68555 L 237.82031 163.1543 L 230.66992 160.73438 L 230.79297 160.37695 L 231.66797 157.29102 z M 26.691406 161.81055 L 27.902344 165.38672 L 20.751953 167.80469 L 19.541016 164.23047 L 26.691406 161.81055 z M 229.45898 164.31055 L 236.61133 166.73047 L 236.23438 167.83789 L 236.20898 167.92578 L 236.17188 168.01367 L 235.2168 170.43555 L 228.19336 167.66797 L 229.10547 165.36328 L 229.45898 164.31055 z M 29.220703 168.72461 L 29.8125 170.21484 L 30.628906 172.02344 L 23.75 175.13281 L 22.886719 173.2168 L 22.845703 173.13281 L 22.8125 173.05078 L 22.199219 171.49219 L 29.220703 168.72461 z M 226.83984 170.98828 L 233.71484 174.10156 L 232.16016 177.53906 L 225.28516 174.42969 L 226.83984 170.98828 z M 32.125 175.28906 L 33.845703 178.64844 L 27.128906 182.08789 L 25.40625 178.73047 L 32.125 175.28906 z M 223.66992 177.63672 L 230.39258 181.07812 L 229.36523 183.08008 L 229.32617 183.16016 L 229.2793 183.24023 L 228.51953 184.56445 L 221.97461 180.80078 L 222.69141 179.55469 L 223.66992 177.63672 z M 35.591797 181.78516 L 36.892578 184.04492 L 37.423828 184.875 L 31.068359 188.94531 L 30.486328 188.03906 L 30.435547 187.96094 L 30.390625 187.88086 L 29.046875 185.54883 L 35.591797 181.78516 z M 220.1582 183.96289 L 222.4082 185.4082 L 226.63477 187.83398 L 226.60938 187.88086 L 226.56445 187.96094 L 226.51367 188.03711 L 224.50586 191.16992 L 218.15039 187.0957 L 220.1582 183.96289 z M 39.462891 188.05273 L 39.669922 188.37695 L 41.527344 190.99023 L 35.375 195.36328 L 33.470703 192.68555 L 33.416016 192.61133 L 33.371094 192.53906 L 33.105469 192.12695 L 39.462891 188.05273 z M 216.12891 190.06445 L 222.28125 194.43945 L 220.43555 197.03516 L 220.38477 197.10938 L 220.32812 197.17969 L 219.96289 197.64648 L 214.0293 192.98047 L 214.2832 192.6582 L 214.30664 192.62695 L 216.12891 190.06445 z M 43.673828 193.87305 L 45.869141 196.66797 L 45.896484 196.69727 L 45.900391 196.70312 L 45.779297 196.79688 L 40.189453 201.63672 L 40.080078 201.50977 L 40.019531 201.43945 L 39.960938 201.36719 L 37.736328 198.53711 L 43.673828 193.87305 z M 211.69727 195.94727 L 217.63086 200.61133 L 217.03516 201.36719 L 216.98047 201.43945 L 216.92188 201.50977 L 215.08008 203.63281 L 209.375 198.69141 L 211.15039 196.64062 L 211.69727 195.94727 z M 48.369141 199.54883 L 49.263672 200.58203 L 49.271484 200.58789 L 50.802734 202.19141 L 45.339844 207.40039 L 43.685547 205.66406 L 43.621094 205.59961 L 43.564453 205.5293 L 42.662109 204.49023 L 48.369141 199.54883 z M 206.97852 201.36719 L 212.44336 206.58008 L 209.83984 209.31055 L 204.375 204.10352 L 206.97852 201.36719 z M 53.308594 204.76562 L 56.039062 207.37305 L 50.832031 212.83594 L 48.101562 210.23242 L 53.308594 204.76562 z M 201.78125 206.58984 L 206.98828 212.05078 L 205.66602 213.31445 L 205.59766 213.37695 L 205.53125 213.43555 L 204.0625 214.70898 L 199.12109 209.00195 L 200.50781 207.80273 L 201.78125 206.58984 z M 58.736328 209.74609 L 60.355469 211.14648 L 61.498047 212.04688 L 56.833984 217.98242 L 55.630859 217.03711 L 55.560547 216.98047 L 55.492188 216.91992 L 53.794922 215.45117 L 58.736328 209.74609 z M 196.39258 211.34375 L 201.05664 217.28125 L 198.08984 219.61523 L 193.42383 213.67578 L 196.39258 211.34375 z M 64.339844 214.28711 L 67.396484 216.45898 L 63.023438 222.61133 L 59.964844 220.43555 L 59.890625 220.38477 L 59.820312 220.33008 L 59.802734 220.31445 L 62.404297 217.00781 L 64.339844 214.28711 z M 190.5293 215.80078 L 194.90234 221.95312 L 192.6875 223.52734 L 192.61328 223.58203 L 192.53516 223.62891 L 191.64844 224.20117 L 187.57422 217.84375 L 188.40039 217.31445 L 190.5293 215.80078 z M 70.380859 218.45898 L 72.880859 220.0625 L 72.908203 220.08008 L 73.416016 220.375 L 69.658203 226.91797 L 69.119141 226.60742 L 69.037109 226.56445 L 68.960938 226.51172 L 66.306641 224.81055 L 70.380859 218.45898 z M 184.39648 219.88086 L 188.4707 226.23438 L 188.03906 226.51367 L 187.96289 226.56445 L 187.88086 226.60742 L 185.05664 228.23242 L 181.29297 221.6875 L 184.08789 220.07812 L 184.11914 220.0625 L 184.39648 219.88086 z M 76.691406 222.25391 L 77.447266 222.68945 L 79.869141 223.92969 L 76.427734 230.64844 L 73.923828 229.36523 L 73.839844 229.32422 L 73.763672 229.27734 L 72.927734 228.79883 L 76.691406 222.25391 z M 178.14062 223.41406 L 181.58203 230.13281 L 178.29492 231.81445 L 178.21484 231.85742 L 178.13086 231.89453 L 178.05664 231.92773 L 175.82812 226.99805 L 174.85352 225.0957 L 174.94727 225.04883 L 178.14062 223.41406 z M 83.087891 225.51758 L 86.525391 227.07227 L 83.416016 233.94922 L 79.978516 232.39453 L 83.087891 225.51758 z M 171.50977 226.60352 L 174.61914 233.48242 L 173.21875 234.11719 L 173.13477 234.1543 L 173.04688 234.1875 L 170.9668 235.00781 L 168.19531 227.98438 L 170.21875 227.1875 L 171.50977 226.60352 z M 89.861328 228.40234 L 91.673828 229.11719 L 93.224609 229.64258 L 90.804688 236.79492 L 89.164062 236.23828 L 89.072266 236.20703 L 88.986328 236.17383 L 87.089844 235.42383 L 89.861328 228.40234 z M 164.84766 229.27734 L 167.26758 236.42969 L 163.69531 237.63867 L 161.27148 230.48828 L 164.84766 229.27734 z M 96.623047 230.79297 L 100.25391 231.82422 L 98.191406 239.08594 L 94.5625 238.05469 L 96.623047 230.79297 z M 157.83789 231.51172 L 159.89844 238.77734 L 157.24414 239.53125 L 157.1543 239.55469 L 157.0625 239.57812 L 156.07422 239.80664 L 154.37695 232.45117 L 155.27344 232.24023 L 157.83789 231.51172 z M 103.73047 232.70703 L 106.92578 233.44336 L 107.22461 233.49609 L 105.89844 240.92578 L 105.49023 240.85352 L 105.39453 240.83594 L 105.30273 240.81641 L 102.03125 240.0625 L 103.73047 232.70703 z M 150.69727 233.29883 L 152.39648 240.6543 L 151.69727 240.81641 L 151.60547 240.83594 L 151.50977 240.85352 L 148.50195 241.39062 L 147.17578 233.95898 L 150.07617 233.44336 L 150.69727 233.29883 z M 110.94141 234.16016 L 112.15039 234.37695 L 114.49023 234.67383 L 113.53711 242.16406 L 111.13672 241.85742 L 111.04102 241.84375 L 110.94727 241.82812 L 109.61328 241.58984 L 110.94141 234.16016 z M 143.63672 234.5293 L 144.58789 242.01758 L 140.84375 242.49414 L 139.89258 235.00586 L 143.63672 234.5293 z M 118.04492 235.09766 L 121.81055 235.38672 L 121.23828 242.91406 L 117.47656 242.62891 L 118.04492 235.09766 z M 136.32227 235.29883 L 136.89453 242.82617 L 134.49023 243.00977 L 134.39844 243.01562 L 134.30078 243.01953 L 132.93555 243.05273 L 132.74609 235.50781 L 134.02148 235.47656 L 136.32227 235.29883 z M 125.39062 235.53711 L 128.49023 235.61523 L 128.97266 235.59961 L 129.16406 243.14844 L 128.59375 243.16406 L 128.5 243.16797 L 128.40234 243.16406 L 125.19922 243.08398 L 125.39062 235.53711 z " ></path></g></svg>