<svg height='100px' width='100px'  fill="#000000" xmlns:dc="http://purl.org/dc/elements/1.1/" xmlns:cc="http://creativecommons.org/ns#" xmlns:rdf="http://www.w3.org/1999/02/22-rdf-syntax-ns#" xmlns:svg="http://www.w3.org/2000/svg" xmlns="http://www.w3.org/2000/svg" xmlns:sodipodi="http://sodipodi.sourceforge.net/DTD/sodipodi-0.dtd" xmlns:inkscape="http://www.inkscape.org/namespaces/inkscape" version="1.1" x="0px" y="0px" viewBox="0 0 100 100">

<defs>
    <linearGradient id="gradient" gradientTransform="">
      <stop offset="0%"  stop-color="#0644bfaa" />
      <stop offset="95%" stop-color="#f29829aa" />
    </linearGradient>
</defs>

<g  fill="url('#gradient')" transform="translate(0,-952.36218)"><path fill="url('#gradient')" d="M 35.46875 7 C 31.773165 6.993 28.076878 8.38517 25.25 11.21875 C 19.596245 16.88596 19.596267 26.0828 25.25 31.75 L 48.15625 54.6875 A 1.0001 1.0001 0 0 0 49.5625 54.6875 L 72.46875 31.75 C 78.120131 26.08518 78.153756 16.9172 72.5 11.25 A 1.0001 1.0001 0 0 0 72.34375 11.125 C 66.679525 5.60198 57.636785 5.63113 52.03125 11.25 L 48.875 14.4375 L 45.6875 11.25 C 42.86181 8.4176 39.164335 7.00697 35.46875 7 z M 35.46875 8.96875 C 38.645415 8.97475 41.83242 10.23285 44.28125 12.6875 L 48.15625 16.5625 A 1.0001 1.0001 0 0 0 49.5625 16.5625 L 53.46875 12.6875 C 58.364025 7.78058 66.198465 7.7806 71.09375 12.6875 A 1.0001 1.0001 0 0 0 71.15625 12.75 C 75.98714 17.66086 75.938691 25.42472 71.0625 30.3125 L 48.875 52.5625 L 26.65625 30.3125 C 21.760983 25.40558 21.760965 17.56318 26.65625 12.65625 C 29.103892 10.2028 32.292085 8.96238 35.46875 8.96875 z M 13.46875 27.875 C 12.965042 27.8873 12.462348 28.00148 12 28.21875 C 11.075305 28.65329 10.38403 29.61788 10.28125 30.8125 L 8.0625 56.4375 C 7.795945 59.5359 8.148051 63.71075 11.34375 66.90625 L 25.3125 80.875 C 26.627264 82.1897 27.3582 83.2624 27.375 84.8125 L 27.4375 91.40625 A 1.0001217 1.0001217 0 1 0 29.4375 91.375 L 29.375 84.78125 C 29.35107 82.57335 28.206764 80.92535 26.75 79.46875 L 12.75 65.5 C 10.114775 62.8649 9.8210254 59.4318 10.0625 56.625 L 12.28125 31 C 12.33573 30.36679 12.511076 30.18758 12.84375 30.03125 C 13.176424 29.87492 13.770851 29.81171 14.4375 30 C 15.770799 30.37647 17.237108 31.6017 17.59375 33.25 L 19.875 43.75 A 1.0001 1.0001 0 1 0 21.8125 43.3125 L 19.5625 32.84375 C 19.020137 30.33711 16.981012 28.66194 14.96875 28.09375 C 14.465684 27.9517 13.972458 27.86268 13.46875 27.875 z M 86.875 27.875 C 86.371292 27.8627 85.846816 27.9517 85.34375 28.09375 C 83.331488 28.66194 81.323613 30.33711 80.78125 32.84375 L 78.53125 43.3125 A 1.0001 1.0001 0 1 0 80.46875 43.75 L 82.75 33.25 C 83.106642 31.6017 84.572951 30.37647 85.90625 30 C 86.572899 29.81176 87.167326 29.87497 87.5 30.03125 C 87.832674 30.18758 88.008022 30.36679 88.0625 31 L 90.28125 56.625 C 90.522725 59.4318 90.19772 62.8649 87.5625 65.5 L 73.59375 79.46875 C 72.136986 80.92535 70.99268 82.57335 70.96875 84.78125 L 70.875 91.375 A 1.0001217 1.0001217 0 1 0 72.875 91.40625 L 72.96875 84.8125 C 72.98555 83.2624 73.685236 82.1897 75 80.875 L 88.96875 66.90625 C 92.164448 63.71075 92.516555 59.5359 92.25 56.4375 L 90.0625 30.8125 C 89.95972 29.61788 89.268445 28.65329 88.34375 28.21875 C 87.881402 28.00148 87.378708 27.88732 86.875 27.875 z M 21.21875 49.375 C 18.827834 49.6948 17.274581 51.6739 16.65625 53.75 C 16.046789 55.7963 16.21659 58.15945 17.8125 59.53125 C 17.83573 59.55125 17.85117 59.57375 17.875 59.59375 L 29.0625 70.78125 A 1.0001 1.0001 0 1 0 30.46875 69.375 L 19.21875 58.125 A 1.0001 1.0001 0 0 0 19.15625 58.0625 C 18.418051 57.4572 18.135571 55.88205 18.59375 54.34375 C 19.005568 52.96095 19.93215 51.88625 21.125 51.53125 L 30.125 60.53125 A 1.0001 1.0001 0 0 0 30.78125 60.8125 C 37.888952 61.1741 42.772426 65.1909 43.15625 70.5625 L 44.71875 92.40625 A 1.0030452 1.0030452 0 1 0 46.71875 92.25 L 45.15625 70.40625 C 44.700093 64.02245 38.912413 59.46425 31.3125 58.90625 L 22.0625 49.65625 A 1.0001 1.0001 0 0 0 21.21875 49.375 z M 78.8125 49.375 A 1.0001 1.0001 0 0 0 78.25 49.65625 L 69.03125 58.90625 C 61.431337 59.46425 55.612407 64.02245 55.15625 70.40625 L 53.625 92.25 A 1.0001 1.0001 0 1 0 55.59375 92.40625 L 57.15625 70.5625 C 57.540074 65.1909 62.454798 61.1741 69.5625 60.8125 A 1.0001 1.0001 0 0 0 70.21875 60.53125 L 79.21875 51.53125 C 80.4116 51.88625 81.338182 52.96095 81.75 54.34375 C 82.208179 55.88205 81.925699 57.4572 81.1875 58.0625 A 1.0001 1.0001 0 0 0 81.09375 58.125 L 69.875 69.375 A 1.0001 1.0001 0 1 0 71.28125 70.78125 L 82.4375 59.59375 L 82.53125 59.53125 L 82.5 59.5 C 84.079284 58.1259 84.263432 55.7887 83.65625 53.75 C 83.037919 51.6739 81.484666 49.6948 79.09375 49.375 A 1.0001 1.0001 0 0 0 78.8125 49.375 z " transform="translate(0,952.36218)"></path></g></svg>