<svg height='100px' width='100px'  fill="#000000" xmlns="http://www.w3.org/2000/svg" xmlns:xlink="http://www.w3.org/1999/xlink" version="1.1" x="0px" y="0px" viewBox="0 0 64 64" style="enable-background:new 0 0 64 64;" xml:space="preserve">

<defs>
    <linearGradient id="gradient" gradientTransform="">
      <stop offset="0%"  stop-color="#0644bfcc" />
      <stop offset="95%" stop-color="#f29829cc" />
    </linearGradient>
</defs>

<g fill="url('#gradient')"><path d="M27,2c0-0.553-0.448-1-1-1h-4c-0.552,0-1,0.447-1,1v3.586l-4.293-4.293c-0.391-0.391-1.023-0.391-1.414,0l-14,14   l1.414,1.414L5,14.414V28c0,0.553,0.448,1,1,1h20c0.552,0,1-0.447,1-1V14.414l2.293,2.293l1.414-1.414L27,11.586V2z M23,3h2v6.586   l-2-2V3z M19,27h-6v-8h6V27z M25,27h-4v-9c0-0.553-0.448-1-1-1h-8c-0.552,0-1,0.447-1,1v9H7V12.414l9-9l9,9V27z"></path><rect x="14" y="23" width="2" height="2"></rect><path d="M37,14.414V28c0,0.553,0.448,1,1,1h20c0.552,0,1-0.447,1-1V14.414l2.293,2.293l1.414-1.414L59,11.586V2   c0-0.553-0.448-1-1-1h-4c-0.552,0-1,0.447-1,1v3.586l-4.293-4.293c-0.391-0.391-1.023-0.391-1.414,0l-14,14l1.414,1.414L37,14.414z    M51,27h-6v-8h6V27z M55,3h2v6.586l-2-2V3z M48,3.414l9,9V27h-4v-9c0-0.553-0.448-1-1-1h-8c-0.552,0-1,0.447-1,1v9h-4V12.414   L48,3.414z"></path><rect x="46" y="23" width="2" height="2"></rect><path d="M27,36c0-0.553-0.448-1-1-1h-4c-0.552,0-1,0.447-1,1v3.586l-4.293-4.293c-0.391-0.391-1.023-0.391-1.414,0l-14,14   l1.414,1.414L5,48.414V62c0,0.553,0.448,1,1,1h20c0.552,0,1-0.447,1-1V48.414l2.293,2.293l1.414-1.414L27,45.586V36z M23,37h2   v6.586l-2-2V37z M19,61h-6v-8h6V61z M25,61h-4v-9c0-0.553-0.448-1-1-1h-8c-0.552,0-1,0.447-1,1v9H7V46.414l9-9l9,9V61z"></path><rect x="14" y="57" width="2" height="2"></rect><path d="M59,36c0-0.553-0.448-1-1-1h-4c-0.552,0-1,0.447-1,1v3.586l-4.293-4.293c-0.391-0.391-1.023-0.391-1.414,0l-14,14   l1.414,1.414L37,48.414V62c0,0.553,0.448,1,1,1h20c0.552,0,1-0.447,1-1V48.414l2.293,2.293l1.414-1.414L59,45.586V36z M55,37h2   v6.586l-2-2V37z M51,61h-6v-8h6V61z M57,61h-4v-9c0-0.553-0.448-1-1-1h-8c-0.552,0-1,0.447-1,1v9h-4V46.414l9-9l9,9V61z"></path><rect x="46" y="57" width="2" height="2"></rect></g></svg>